<svg width="484" height="404" viewBox="0 0 484 404" fill="none" xmlns="http://www.w3.org/2000/svg">
<g clip-path="url(#clip0_1_2)">
<path d="M212.5 334.058L125.54 370.926L96.9165 342.302L133.629 255.187L136.896 251.92L161.164 276.188L133.318 332.658L135.03 334.369L191.655 306.678L215.767 330.791L212.5 334.058ZM300.367 314.639L295.389 309.661L195.828 110.228L217.918 88.1385L222.896 93.1165L322.612 292.393L300.367 314.639ZM388.518 158.04L364.405 133.928L392.096 77.3025L390.385 75.5913L333.915 103.437L309.647 79.1693L312.914 75.9024L400.029 39.1895L428.653 67.8131L391.785 154.773L388.518 158.04Z" fill="#12ED7A" fill-opacity="0.35"/>
</g>
<defs>
<clipPath id="clip0_1_2">
<rect width="484" height="404" fill="white"/>
</clipPath>
</defs>
</svg>
